<?xml version="1.0" encoding="utf-8"?>
<!-- Generator: Adobe Illustrator 24.1.3, SVG Export Plug-In . SVG Version: 6.00 Build 0)  -->
<svg version="1.1" id="Layer_1" xmlns="http://www.w3.org/2000/svg" xmlns:xlink="http://www.w3.org/1999/xlink" x="0px" y="0px"
	 viewBox="0 0 130 120" style="enable-background:new 0 0 130 120;" xml:space="preserve">
<style type="text/css">
	.st0{fill:url(#SVGID_1_);}
	.st1{fill:#060606;}
	.st2{fill:url(#SVGID_2_);}
</style>
<g>
	<g>
		
			<linearGradient id="SVGID_1_" gradientUnits="userSpaceOnUse" x1="73.9586" y1="53.1998" x2="128.3689" y2="53.1998" gradientTransform="matrix(1 0 0 1 -1.024607e-05 0)">
			<stop  offset="0" style="stop-color:#B88E42"/>
			<stop  offset="5.309666e-02" style="stop-color:#C19647"/>
			<stop  offset="0.2248" style="stop-color:#D7AB55"/>
			<stop  offset="0.3871" style="stop-color:#E5B85D"/>
			<stop  offset="0.5289" style="stop-color:#EABC60"/>
			<stop  offset="0.5497" style="stop-color:#E6B85E"/>
			<stop  offset="0.7326" style="stop-color:#C89D4C"/>
			<stop  offset="0.8891" style="stop-color:#B68D42"/>
			<stop  offset="1" style="stop-color:#AF873E"/>
		</linearGradient>
		<path class="st0" d="M127.3,72.2c-0.9,1.8-1.9,3.4-2.9,4.5c-1,1.2-2.2,2-3.4,2.6c-1.2,0.5-2.6,0.8-4.1,0.8c-1.6,0-3.4-0.3-5.3-1
			c-1.9-0.7-4.5-1.9-7.9-3.7l-3.2-1.7c-0.5-0.3-1.3-0.7-2.2-1.1l-0.2-0.1c0.9,0.1,1.8,0.2,2.9,0.2c3.7,0,7.2-0.7,10.5-2.1
			c3.3-1.4,6.2-3.3,8.8-5.9c2.5-2.5,4.5-5.4,5.8-8.7c1.4-3.3,2.1-6.8,2.1-10.4c0-4.9-1.2-9.4-3.6-13.6c-2.4-4.2-5.7-7.5-9.9-9.9
			c-4.1-2.4-8.7-3.7-13.5-3.7c-3.7,0-7.1,0.7-10.4,2.1c-3.3,1.4-6.2,3.3-8.7,5.8c-2.5,2.5-4.5,5.4-5.9,8.8
			c-1.4,3.3-2.1,6.8-2.1,10.5c0,3.5,0.7,6.9,2,10.3c1.3,3.3,3.2,6.2,5.7,8.8c2.4,2.5,5.3,4.5,8.7,5.9c-2.8,0.3-5.6,2.6-8.4,7
			l0.9,0.7c1.1-1.5,2.2-2.5,3.1-3.2c0.9-0.6,1.9-0.9,3-0.9c0.9,0,2,0.3,3.1,0.9c1.1,0.6,2.6,1.7,4.5,3.2l3.4,2.7
			c3.3,2.7,6,4.5,8.2,5.6c2.2,1.1,4.3,1.6,6.4,1.6c2.3,0,4.3-0.6,6-1.6c1.8-1.1,3.3-2.8,4.5-5c1.3-2.3,2.4-5.2,3.3-8.8L127.3,72.2z
			 M93.9,68.8c-2.2-1.2-4-2.9-5.6-5.1c-1.6-2.2-2.7-4.9-3.6-8.1c-0.8-3.2-1.2-6.6-1.2-10.3c0-3.7,0.4-7.2,1.2-10.4
			c0.8-3.2,2-5.9,3.6-8.1c1.5-2.2,3.4-4,5.5-5.2c2.2-1.2,4.6-1.8,7.2-1.8c2.7,0,5.1,0.6,7.3,1.8c2.2,1.2,4,2.9,5.5,5.1
			c1.5,2.2,2.7,4.9,3.5,8c0.8,3.1,1.2,6.7,1.2,10.5c0,4.5-0.5,8.4-1.6,11.9c-1.1,3.5-2.6,6.2-4.6,8.4c-3.2,3.4-7,5.2-11.3,5.2
			C98.5,70.6,96.1,70,93.9,68.8z"/>
		<ellipse class="st1" cx="64.7" cy="7.8" rx="6.7" ry="6.7"/>
		
			<linearGradient id="SVGID_2_" gradientUnits="userSpaceOnUse" x1="2.0083" y1="45.9584" x2="77.1015" y2="45.9584" gradientTransform="matrix(1 0 0 1 -1.024607e-05 0)">
			<stop  offset="0" style="stop-color:#B88E42"/>
			<stop  offset="5.309666e-02" style="stop-color:#C19647"/>
			<stop  offset="0.2248" style="stop-color:#D7AB55"/>
			<stop  offset="0.3871" style="stop-color:#E5B85D"/>
			<stop  offset="0.5289" style="stop-color:#EABC60"/>
			<stop  offset="0.5497" style="stop-color:#E6B85E"/>
			<stop  offset="0.7326" style="stop-color:#C89D4C"/>
			<stop  offset="0.8891" style="stop-color:#B68D42"/>
			<stop  offset="1" style="stop-color:#AF873E"/>
		</linearGradient>
		<path class="st2" d="M70,31.1c0-2.1,0.1-3.6,0.3-4.7c0.2-1,0.5-1.9,1.1-2.6c1.2-1.6,3.1-2.7,5.7-3.2v-1.2H52.5v1.2
			c2.9,0.4,5.1,1.3,6.6,2.7c0.3,0.3,0.6,0.6,0.8,0.9c-2.8,5.4-19.6,33.3-19.6,33.3L25.7,28.5c-1.3-2.6-1.9-4.5-1.9-5.7
			c0-0.7,0.2-1.6,0.7-2.7c0-0.1,0.1-0.2,0.2-0.5H6.4v1.2c1.9,0.1,3.5,0.5,4.7,1.3c0,0,0,0,0,0v37.2v0l0,0c0,0,0,0,0,0
			c-0.1,1-0.4,6.8-5.1,10.2c-1.4,1-2.9,1.6-4,1.8c0,0.1,0,0.1,0,0.2c0,0.1,0,0.3,0,0.4c0,0.1,0,0.2,0,0.2c0,0.1,0,0.1,0,0.2
			c0,0,0,0,0,0c3,0,6,0,9.1,0h0h0h4.1c3,0,6,0,9.1,0c0-0.1,0-0.1,0-0.2c0-0.1,0-0.2,0-0.2c0-0.1,0-0.3,0-0.4c0-0.1,0-0.1,0-0.2
			c-1.2-0.3-2.6-0.8-4-1.8c-4.6-3.4-5-9.2-5.1-10.2v-32l0.4,0.6L36.2,69h0.9L61,27.1c0.2,1,0.2,2.4,0.2,4v29.3c0,2.7-0.1,4.7-0.4,6
			c-0.1,0.8-0.4,1.5-0.8,2.1c-0.4,0.6-0.9,1.1-1.5,1.5c-0.6,0.3-1.3,0.5-1.9,0.5c-1,0-1.8-0.3-2.4-0.9c-0.6-0.6-0.9-1.4-0.9-2.3
			c0-0.5,0.1-1.1,0.3-1.7l0.2-0.8c0.2-0.8,0.2-1.5,0.2-2c0-1.2-0.4-2.2-1.2-2.9c-0.8-0.8-1.9-1.2-3.1-1.2c-1.3,0-2.4,0.5-3.3,1.5
			c-0.8,1-1.3,2.2-1.3,3.7c0,1.6,0.5,3.1,1.5,4.4c1,1.3,2.3,2.4,4.1,3.1c1.7,0.7,3.5,1.1,5.5,1.1c0,0,0,0,0,0h13.9c0,0,0,0,0,0
			c2.4,0,4.8,0,7.1,0c0-0.1,0-0.1,0-0.2c0-0.1,0-0.2,0-0.2c0-0.1,0-0.3,0-0.4c0-0.1,0-0.1,0-0.2c-1.5-0.5-2.6-1.3-3.2-1.8
			c-3.1-2.8-3.5-7.1-3.8-10.1C70,58,70,56.9,70,56.2V31.1z"/>
	</g>
	<g>
		<g>
			<path class="st1" d="M1.9,106.8v-1h0.3c0.4,0,0.7,0,1-0.1c0.3-0.1,0.5-0.2,0.7-0.5c0.2-0.2,0.3-0.6,0.3-1.1V92.6
				c0-0.5-0.1-0.9-0.3-1.1c-0.2-0.2-0.4-0.4-0.7-0.5c-0.3-0.1-0.6-0.1-1-0.1H1.9v-1h6.9v1H8.4c-0.3,0-0.7,0-1,0.1
				c-0.3,0.1-0.5,0.2-0.7,0.5c-0.2,0.2-0.3,0.6-0.3,1.1v11.5c0,0.5,0.1,0.9,0.3,1.1c0.2,0.2,0.4,0.4,0.7,0.5c0.3,0.1,0.6,0.1,1,0.1
				h0.3v1H1.9z"/>
			<path class="st1" d="M10.3,106.8v-1h0.2c0.4,0,0.7,0,1-0.1c0.3-0.1,0.5-0.2,0.7-0.5c0.2-0.2,0.3-0.6,0.3-1.1v-7.4
				c0-0.5-0.1-0.8-0.3-1.1c-0.2-0.2-0.4-0.4-0.7-0.4c-0.3-0.1-0.6-0.1-0.9-0.1h-0.1v-1h3.8l0.3,1.9h0.1c0.3-0.6,0.7-1.1,1-1.4
				c0.4-0.3,0.8-0.5,1.2-0.6c0.4-0.1,0.9-0.2,1.4-0.2c1.2,0,2.2,0.4,2.9,1.1c0.7,0.7,1,1.9,1,3.5v5.6c0,0.5,0.1,0.9,0.2,1.1
				c0.1,0.2,0.4,0.4,0.6,0.5c0.3,0.1,0.6,0.1,0.9,0.1h0.1v1h-4.1v-8.2c0-1-0.2-1.8-0.6-2.4c-0.4-0.6-1.1-0.9-2-0.9
				c-0.7,0-1.3,0.2-1.7,0.5c-0.4,0.4-0.7,0.8-0.9,1.4c-0.2,0.6-0.3,1.2-0.3,1.9v5c0,0.5,0.1,0.8,0.3,1c0.2,0.2,0.4,0.4,0.7,0.4
				c0.3,0.1,0.6,0.1,0.9,0.1h0.1v1H10.3z"/>
			<path class="st1" d="M26.7,96.4c-0.1-0.3-0.2-0.6-0.4-0.8c-0.1-0.2-0.3-0.3-0.5-0.4c-0.2-0.1-0.5-0.1-0.8-0.1v-1h5.9v1h-0.3
				c-0.5,0-0.8,0.1-1.1,0.3c-0.2,0.2-0.4,0.5-0.4,0.9c0,0.1,0,0.3,0,0.4c0,0.1,0.1,0.3,0.1,0.5l1.6,4.5c0.1,0.4,0.3,0.8,0.4,1.2
				c0.1,0.4,0.3,0.9,0.4,1.3c0.1,0.4,0.2,0.7,0.3,1c0.1-0.3,0.2-0.8,0.5-1.4c0.3-0.6,0.5-1.2,0.7-1.8l1.7-4.6
				c0.1-0.2,0.1-0.4,0.2-0.6c0-0.2,0-0.3,0-0.5c0-0.4-0.1-0.7-0.4-0.9c-0.3-0.2-0.6-0.3-1.2-0.3h-0.2v-1h5v1h-0.3
				c-0.3,0-0.5,0-0.7,0.1c-0.2,0.1-0.4,0.3-0.5,0.5c-0.2,0.3-0.3,0.7-0.5,1.2l-3.7,9.8h-2.1L26.7,96.4z"/>
			<path class="st1" d="M45.2,107c-1.7,0-3.1-0.6-4-1.7c-1-1.1-1.4-2.7-1.4-4.8c0-2.2,0.5-3.9,1.4-5c0.9-1.1,2.2-1.7,3.9-1.7
				c1.5,0,2.7,0.5,3.6,1.4c0.9,0.9,1.3,2.4,1.3,4.2v1.1h-7.8c0,1.7,0.3,3,0.9,3.7c0.6,0.8,1.4,1.2,2.6,1.2c0.8,0,1.5-0.2,2.1-0.5
				c0.6-0.3,1-0.7,1.3-1.1c0.1,0,0.2,0.1,0.3,0.3c0.1,0.1,0.1,0.3,0.1,0.5c0,0.3-0.1,0.7-0.4,1c-0.3,0.4-0.8,0.7-1.4,0.9
				C47,106.9,46.2,107,45.2,107z M47.5,99.3c0-1.3-0.2-2.3-0.6-3c-0.4-0.8-1-1.1-2-1.1c-0.9,0-1.5,0.4-2,1.1
				c-0.5,0.7-0.8,1.8-0.8,3.1H47.5z"/>
			<path class="st1" d="M56,107c-0.8,0-1.5-0.1-2-0.3c-0.6-0.2-1-0.5-1.4-0.8c-0.3-0.4-0.5-0.8-0.5-1.4c0-0.4,0.1-0.8,0.3-1
				c0.2-0.2,0.4-0.4,0.6-0.5c0.2-0.1,0.4-0.1,0.6-0.1c0,0.8,0.2,1.5,0.6,2.1c0.4,0.6,1,0.9,2,0.9c0.8,0,1.5-0.2,1.9-0.6
				s0.7-0.9,0.7-1.5c0-0.4-0.1-0.7-0.2-1c-0.2-0.3-0.5-0.5-0.9-0.7c-0.4-0.2-1-0.5-1.8-0.9c-0.8-0.4-1.5-0.7-2-1.1
				c-0.5-0.3-0.9-0.7-1.2-1.2c-0.3-0.4-0.4-1-0.4-1.7c0-1.1,0.4-1.9,1.2-2.5c0.8-0.6,1.9-0.9,3.2-0.9c0.8,0,1.4,0.1,1.9,0.3
				c0.5,0.2,0.9,0.5,1.2,0.8c0.3,0.3,0.4,0.7,0.4,1.1c0,0.4-0.1,0.8-0.4,1c-0.3,0.3-0.7,0.4-1.3,0.4c0-0.8-0.2-1.4-0.5-1.8
				c-0.3-0.4-0.8-0.7-1.5-0.7c-0.8,0-1.4,0.2-1.7,0.5c-0.3,0.4-0.5,0.8-0.5,1.4c0,0.4,0.1,0.7,0.3,1c0.2,0.3,0.5,0.5,0.9,0.7
				c0.4,0.2,1,0.5,1.7,0.8c0.8,0.3,1.5,0.7,2,1c0.5,0.3,0.9,0.7,1.1,1.2c0.2,0.5,0.4,1,0.4,1.7c0,1.2-0.4,2.2-1.3,2.8
				C58.5,106.7,57.4,107,56,107z"/>
			<path class="st1" d="M67.4,107c-1.2,0-2.1-0.3-2.6-0.8c-0.5-0.5-0.8-1.5-0.8-2.8v-7.9h-1.8v-0.9c0.3,0,0.6-0.1,0.9-0.2
				c0.3-0.1,0.6-0.3,0.9-0.6c0.3-0.3,0.5-0.6,0.7-1c0.2-0.4,0.3-0.9,0.4-1.5h1.1v2.9h3.1v1.3h-3.1v8c0,0.8,0.2,1.4,0.5,1.8
				c0.3,0.4,0.8,0.6,1.3,0.6c0.3,0,0.5,0,0.8,0c0.2,0,0.5-0.1,0.7-0.1v1c-0.2,0.1-0.5,0.2-0.9,0.3C68.1,107,67.7,107,67.4,107z"/>
			<path class="st1" d="M70.7,106.8v-1H71c0.4,0,0.7,0,0.9-0.1c0.3-0.1,0.5-0.2,0.6-0.5c0.2-0.2,0.2-0.6,0.2-1.1v-7.4
				c0-0.5-0.1-0.8-0.2-1.1c-0.2-0.2-0.4-0.4-0.6-0.4c-0.3-0.1-0.6-0.1-0.9-0.1h-0.1v-1h3.7l0.3,1.9H75c0.3-0.6,0.7-1.1,1-1.4
				c0.4-0.3,0.8-0.5,1.2-0.6c0.4-0.1,0.9-0.2,1.4-0.2c0.5,0,1,0.1,1.4,0.2c0.4,0.1,0.8,0.4,1.2,0.7c0.3,0.3,0.6,0.7,0.8,1.3h0.2
				c0.3-0.6,0.7-1.1,1-1.4c0.4-0.3,0.8-0.5,1.2-0.6c0.4-0.1,0.9-0.2,1.4-0.2c1.2,0,2.2,0.4,2.8,1.1c0.7,0.7,1,1.9,1,3.5v5.6
				c0,0.5,0.1,0.9,0.2,1.1c0.2,0.2,0.4,0.4,0.6,0.5c0.3,0.1,0.6,0.1,0.9,0.1h0.1v1h-4.1v-8.2c0-1-0.2-1.8-0.6-2.4
				c-0.4-0.6-1-0.9-1.9-0.9c-0.6,0-1.2,0.2-1.5,0.5c-0.4,0.3-0.7,0.8-0.8,1.3c-0.2,0.5-0.2,1.1-0.2,1.7v5.2c0,0.5,0.1,0.9,0.2,1.1
				c0.2,0.2,0.4,0.4,0.6,0.5c0.3,0.1,0.6,0.1,0.9,0.1h0.1v1h-4.1v-8.2c0-1-0.2-1.8-0.6-2.4c-0.4-0.6-1-0.9-1.9-0.9
				c-0.7,0-1.2,0.2-1.6,0.5c-0.4,0.4-0.7,0.8-0.9,1.4c-0.2,0.6-0.3,1.2-0.3,1.9v5c0,0.5,0.1,0.8,0.3,1c0.2,0.2,0.4,0.4,0.7,0.4
				c0.3,0.1,0.6,0.1,1,0.1H77v1H70.7z"/>
			<path class="st1" d="M99,107c-1.7,0-3.1-0.6-4-1.7c-1-1.1-1.4-2.7-1.4-4.8c0-2.2,0.5-3.9,1.4-5c0.9-1.1,2.2-1.7,3.9-1.7
				c1.5,0,2.7,0.5,3.6,1.4c0.9,0.9,1.3,2.4,1.3,4.2v1.1h-7.8c0,1.7,0.3,3,0.9,3.7c0.6,0.8,1.4,1.2,2.6,1.2c0.8,0,1.5-0.2,2.1-0.5
				c0.6-0.3,1-0.7,1.3-1.1c0.1,0,0.2,0.1,0.3,0.3c0.1,0.1,0.1,0.3,0.1,0.5c0,0.3-0.1,0.7-0.4,1c-0.3,0.4-0.8,0.7-1.4,0.9
				C100.7,106.9,100,107,99,107z M101.3,99.3c0-1.3-0.2-2.3-0.6-3c-0.4-0.8-1-1.1-2-1.1c-0.9,0-1.5,0.4-2,1.1
				c-0.5,0.7-0.8,1.8-0.8,3.1H101.3z"/>
			<path class="st1" d="M105.5,106.8v-1h0.2c0.4,0,0.7,0,1-0.1c0.3-0.1,0.5-0.2,0.7-0.5c0.2-0.2,0.3-0.6,0.3-1.1v-7.4
				c0-0.5-0.1-0.8-0.3-1.1c-0.2-0.2-0.4-0.4-0.7-0.4c-0.3-0.1-0.6-0.1-0.9-0.1h-0.1v-1h3.8l0.3,1.9h0.1c0.3-0.6,0.7-1.1,1-1.4
				c0.4-0.3,0.8-0.5,1.2-0.6c0.4-0.1,0.9-0.2,1.4-0.2c1.2,0,2.2,0.4,2.9,1.1c0.7,0.7,1,1.9,1,3.5v5.6c0,0.5,0.1,0.9,0.2,1.1
				c0.1,0.2,0.4,0.4,0.6,0.5c0.3,0.1,0.6,0.1,0.9,0.1h0.1v1h-4.1v-8.2c0-1-0.2-1.8-0.6-2.4c-0.4-0.6-1.1-0.9-2-0.9
				c-0.7,0-1.3,0.2-1.7,0.5c-0.4,0.4-0.7,0.8-0.9,1.4c-0.2,0.6-0.3,1.2-0.3,1.9v5c0,0.5,0.1,0.8,0.3,1c0.2,0.2,0.4,0.4,0.7,0.4
				c0.3,0.1,0.6,0.1,0.9,0.1h0.1v1H105.5z"/>
			<path class="st1" d="M125.7,107c-1.2,0-2.1-0.3-2.6-0.8c-0.5-0.5-0.8-1.5-0.8-2.8v-7.9h-1.8v-0.9c0.3,0,0.6-0.1,0.9-0.2
				c0.3-0.1,0.6-0.3,0.9-0.6c0.3-0.3,0.5-0.6,0.7-1c0.2-0.4,0.3-0.9,0.4-1.5h1.1v2.9h3.1v1.3h-3.1v8c0,0.8,0.2,1.4,0.5,1.8
				c0.3,0.4,0.8,0.6,1.3,0.6c0.3,0,0.5,0,0.8,0c0.2,0,0.5-0.1,0.7-0.1v1c-0.2,0.1-0.5,0.2-0.9,0.3C126.5,107,126.1,107,125.7,107z"
				/>
			<path class="st1" d="M103.1,116.4l0,1.9h-5.4v-0.2h0.2c0.3,0,0.5,0,0.6-0.1c0.1-0.1,0.2-0.2,0.2-0.3c0-0.1,0-0.5,0-1v-3.1
				c0-0.5,0-0.8,0-1c0-0.1-0.1-0.2-0.2-0.3c-0.1-0.1-0.3-0.1-0.6-0.1h-0.1v-0.2h3.1v0.2h-0.3c-0.3,0-0.5,0-0.6,0.1
				c-0.1,0.1-0.2,0.1-0.2,0.3c0,0.1,0,0.5,0,1v3.3c0,0.5,0,0.8,0,0.9c0,0.1,0.1,0.2,0.2,0.3c0.1,0.1,0.4,0.1,0.7,0.1h0.5
				c0.4,0,0.7,0,0.9-0.1c0.2-0.1,0.4-0.2,0.5-0.5c0.2-0.2,0.3-0.6,0.5-1.1H103.1z"/>
			<path class="st1" d="M105.8,118c0-0.1,0-0.3,0.1-0.4c0.1-0.1,0.2-0.1,0.4-0.1c0.1,0,0.3,0,0.4,0.1c0.1,0.1,0.1,0.2,0.1,0.4
				c0,0.1-0.1,0.3-0.2,0.4c-0.1,0.1-0.2,0.1-0.4,0.1c-0.1,0-0.3-0.1-0.4-0.2C105.9,118.2,105.8,118.1,105.8,118z"/>
			<path class="st1" d="M115.2,116.4l0,1.9h-5.4v-0.2h0.2c0.3,0,0.5,0,0.6-0.1c0.1-0.1,0.2-0.2,0.2-0.3c0-0.1,0-0.5,0-1v-3.1
				c0-0.5,0-0.8,0-1c0-0.1-0.1-0.2-0.2-0.3c-0.1-0.1-0.3-0.1-0.6-0.1h-0.1v-0.2h3.1v0.2h-0.3c-0.3,0-0.5,0-0.6,0.1
				c-0.1,0.1-0.2,0.1-0.2,0.3c0,0.1,0,0.5,0,1v3.3c0,0.5,0,0.8,0,0.9c0,0.1,0.1,0.2,0.2,0.3c0.1,0.1,0.4,0.1,0.7,0.1h0.5
				c0.4,0,0.7,0,0.9-0.1c0.2-0.1,0.4-0.2,0.5-0.5c0.2-0.2,0.3-0.6,0.5-1.1H115.2z"/>
			<path class="st1" d="M117.9,118c0-0.1,0-0.3,0.1-0.4c0.1-0.1,0.2-0.1,0.4-0.1c0.1,0,0.3,0,0.4,0.1c0.1,0.1,0.1,0.2,0.1,0.4
				c0,0.1-0.1,0.3-0.2,0.4c-0.1,0.1-0.2,0.1-0.4,0.1c-0.1,0-0.3-0.1-0.4-0.2C117.9,118.2,117.9,118.1,117.9,118z"/>
			<path class="st1" d="M127.6,115.9h0.2v2.2h-0.2c-0.1-0.3-0.2-0.5-0.3-0.7c-0.6,0.6-1.3,1-2.1,1c-0.9,0-1.7-0.3-2.3-0.9
				c-0.6-0.6-0.9-1.4-0.9-2.3c0-0.6,0.1-1.2,0.4-1.8c0.3-0.6,0.6-1,1.1-1.2c0.5-0.3,1-0.4,1.6-0.4c0.5,0,0.9,0.1,1.3,0.3
				c0.4,0.2,0.7,0.4,0.9,0.7c0.1-0.3,0.2-0.5,0.2-0.8h0.2l0.1,2.4h-0.2c-0.1-0.9-0.4-1.5-0.9-1.8s-0.9-0.5-1.5-0.5
				c-0.7,0-1.2,0.3-1.6,0.8c-0.4,0.5-0.6,1.3-0.6,2.3c0,1,0.2,1.7,0.6,2.2c0.4,0.5,1,0.8,1.6,0.8c0.3,0,0.7-0.1,1-0.2
				c0.4-0.2,0.6-0.4,0.8-0.8C127.4,116.7,127.6,116.3,127.6,115.9z"/>
		</g>
	</g>
</g>
</svg>
